<svg width="17" height="17" viewBox="0 0 17 17" fill="none" xmlns="http://www.w3.org/2000/svg" stroke="transparent" stroke-width="0px">
<path d="M2.51883 6.0646C1.73883 6.8446 1.73883 8.1146 2.51883 8.8946L6.76883 13.1346C7.13883 13.5046 7.64883 13.7146 8.17883 13.7146C8.70883 13.7146 9.21883 13.5046 9.59883 13.1346L15.2488 7.4746L8.17883 0.404602L6.05883 2.5246L4.99883 1.4646C4.00883 0.524602 2.45883 0.524602 1.46883 1.4646C0.488832 2.4346 0.478832 4.0046 1.44883 4.9846C1.45883 4.9946 1.45883 4.9946 1.46883 5.0046L2.51883 6.0646ZM8.17883 3.2346L12.4288 7.4746L8.17883 11.7246L3.93883 7.4746L6.05883 5.3546L8.88883 8.1846L10.2988 6.7746L7.46883 3.9446L8.17883 3.2346ZM2.87883 2.8846C3.06883 2.6846 3.38883 2.6846 3.58883 2.8846L4.64883 3.9446L3.93883 4.6446L2.87883 3.6446C2.78883 3.5346 2.74883 3.3846 2.76883 3.2346C2.75883 3.1046 2.79883 2.9846 2.87883 2.8846ZM0.768832 14.0646H16.7688V16.0646H0.768832V14.0646ZM15.1688 8.3346C15.1688 8.3346 16.7688 11.0046 16.7688 11.8946C16.7688 12.7746 16.0488 13.4946 15.1688 13.4946C14.2888 13.4946 13.5688 12.7746 13.5688 11.8946C13.5688 11.0046 15.1688 8.3346 15.1688 8.3346Z" fill="#9CA8B9"/>
</svg>
