<svg width="18" height="18" viewBox="0 0 18 18" fill="none" xmlns="http://www.w3.org/2000/svg">
<path d="M8 0.70105C3.58 0.70105 0 4.28105 0 8.70105C0 13.121 3.58 16.701 8 16.701C12.42 16.701 16 13.121 16 8.70105C16 4.28105 12.42 0.70105 8 0.70105ZM8 14.701C7.35 14.701 6.71 14.591 6.1 14.391C6.15 14.291 6.2 14.1911 6.24 14.0911C6.32 13.8511 6.06 13.2311 6.06 13.0911C5.81 12.6811 5.51 12.3111 5.15 12.001C4.97 11.8811 5.15 11.2111 5.15 10.781C5.15 10.351 4.15 10.121 3.82 9.88105C3.49 9.64105 3.34 10.551 2.91 10.361C2.48 10.1711 2.55 9.58105 2.49 9.09105C2.49 8.93105 2.26 8.83105 2 8.75105V8.70105C2 6.50105 3.2 4.47105 5.14 3.42105C5.21 4.24105 5.14 4.64105 5.83 4.78105C6.34 4.84105 6.86 4.84105 7.37 4.78105C7.88 4.78105 7.85 6.11105 7.97 6.13105C8.45 7.29105 9.43 8.17105 10.63 8.52105C11.05 8.63105 10.19 9.52105 9.63 9.76105C9.07 10.001 8.48 10.051 8.4 10.691C8.32 11.331 9.23 10.951 9.47 11.061C9.71 11.171 10.73 11.561 11.15 10.981C11.57 10.401 13.29 10.601 13.15 9.98105C13.01 9.36105 13.5 8.70105 14 8.21105C14 8.37105 14 8.53105 14 8.70105C14 12.011 11.31 14.701 8 14.701Z" fill="#9CA8B9"/>
</svg>
