<svg width="64" height="65" viewBox="0 0 64 65" fill="none" xmlns="http://www.w3.org/2000/svg">
<g clip-path="url(#clip0_75_123)">
<path d="M49.9002 20.2559H44.1602C43.6422 20.2551 43.1333 20.1202 42.6829 19.8643C42.2325 19.6085 41.8561 19.2404 41.5902 18.7959L40.9202 17.6859C40.476 16.9446 39.8474 16.3312 39.0955 15.9053C38.3437 15.4794 37.4943 15.2557 36.6302 15.2559H27.1602C26.2978 15.2574 25.4504 15.482 24.7005 15.9078C23.9505 16.3336 23.3234 16.9461 22.8802 17.6859L22.2102 18.7959C21.9434 19.2418 21.5654 19.6109 21.1131 19.8668C20.6608 20.1227 20.1498 20.2568 19.6302 20.2559H13.9002C13.249 20.2584 12.6047 20.3902 12.0049 20.6437C11.405 20.8971 10.8614 21.2671 10.4056 21.7322C9.94978 22.1973 9.59085 22.7482 9.3496 23.3531C9.10834 23.958 8.98957 24.6047 9.00016 25.2559V47.2559C8.98957 47.907 9.10834 48.5537 9.3496 49.1586C9.59085 49.7635 9.94978 50.3144 10.4056 50.7795C10.8614 51.2446 11.405 51.6146 12.0049 51.8681C12.6047 52.1215 13.249 52.2533 13.9002 52.2559H49.9002C51.2364 52.2587 52.5202 51.736 53.4743 50.8005C54.4285 49.865 54.9765 48.5919 55.0002 47.2559V25.2559C54.9765 23.9198 54.4285 22.6467 53.4743 21.7112C52.5202 20.7758 51.2364 20.253 49.9002 20.2559ZM53.0002 47.2559C52.9742 48.0606 52.6362 48.8236 52.0576 49.3835C51.479 49.9434 50.7053 50.2563 49.9002 50.2559H13.9002C13.5116 50.2533 13.1274 50.1733 12.7701 50.0204C12.4129 49.8675 12.0897 49.6448 11.8196 49.3654C11.5495 49.086 11.3379 48.7555 11.1972 48.3932C11.0565 48.031 10.9895 47.6443 11.0002 47.2559V25.2559C10.9895 24.8674 11.0565 24.4807 11.1972 24.1185C11.3379 23.7562 11.5495 23.4257 11.8196 23.1463C12.0897 22.8669 12.4129 22.6442 12.7701 22.4913C13.1274 22.3384 13.5116 22.2584 13.9002 22.2559H19.6302C20.4943 22.256 21.3437 22.0323 22.0955 21.6064C22.8474 21.1805 23.476 20.5671 23.9202 19.8259L24.5902 18.7159C24.8561 18.2713 25.2325 17.9032 25.6829 17.6474C26.1332 17.3915 26.6422 17.2566 27.1602 17.2559H36.6302C37.1498 17.2549 37.6608 17.389 38.1131 17.6449C38.5654 17.9009 38.9434 18.2699 39.2102 18.7159L39.8802 19.8259C40.3234 20.5656 40.9505 21.1781 41.7005 21.6039C42.4504 22.0297 43.2978 22.2543 44.1602 22.2559H49.9002C50.7053 22.2554 51.479 22.5683 52.0576 23.1282C52.6362 23.6881 52.9742 24.4511 53.0002 25.2559V47.2559ZM39.0002 35.2559C39.0002 36.6403 38.5896 37.9937 37.8204 39.1449C37.0513 40.296 35.958 41.1932 34.6789 41.723C33.3999 42.2528 31.9924 42.3915 30.6345 42.1214C29.2767 41.8513 28.0294 41.1846 27.0504 40.2056C26.0714 39.2266 25.4048 37.9794 25.1347 36.6215C24.8646 35.2636 25.0032 33.8562 25.533 32.5771C26.0628 31.298 26.96 30.2047 28.1112 29.4356C29.2623 28.6664 30.6157 28.2559 32.0002 28.2559C32.2654 28.2559 32.5197 28.3612 32.7073 28.5488C32.8948 28.7363 33.0002 28.9906 33.0002 29.2559C33.0002 29.5211 32.8948 29.7754 32.7073 29.963C32.5197 30.1505 32.2654 30.2559 32.0002 30.2559C30.8061 30.2544 29.6509 30.6803 28.7435 31.4566C27.8362 32.2329 27.2367 33.3083 27.0533 34.4882C26.87 35.6682 27.115 36.8748 27.7441 37.8898C28.3731 38.9047 29.3446 39.6611 30.4828 40.022C31.6211 40.3829 32.8509 40.3245 33.9499 39.8575C35.0488 39.3904 35.9443 38.5454 36.4744 37.4754C37.0045 36.4054 37.1341 35.181 36.8399 34.0238C36.5456 32.8665 35.8469 31.8527 34.8702 31.1659C34.762 31.0901 34.6699 30.9936 34.5993 30.8821C34.5286 30.7705 34.4807 30.646 34.4584 30.5159C34.4361 30.3857 34.4398 30.2524 34.4693 30.1237C34.4987 29.995 34.5534 29.8733 34.6302 29.7659C34.7827 29.5559 35.011 29.4135 35.2666 29.3687C35.5223 29.3239 35.7853 29.3803 36.0002 29.5259C36.9242 30.1693 37.6794 31.0261 38.2016 32.0236C38.7239 33.0211 38.9978 34.1299 39.0002 35.2559ZM48.0002 24.2559C47.4068 24.2559 46.8268 24.4318 46.3335 24.7614C45.8401 25.0911 45.4556 25.5596 45.2285 26.1078C45.0015 26.656 44.9421 27.2592 45.0578 27.8411C45.1736 28.4231 45.4593 28.9576 45.8788 29.3772C46.2984 29.7967 46.833 30.0825 47.4149 30.1982C47.9968 30.314 48.6 30.2546 49.1482 30.0275C49.6964 29.8004 50.1649 29.4159 50.4946 28.9226C50.8242 28.4292 51.0002 27.8492 51.0002 27.2559C51.0002 26.4602 50.6841 25.6971 50.1215 25.1345C49.5589 24.5719 48.7958 24.2559 48.0002 24.2559ZM48.0002 28.2559C47.8024 28.2559 47.609 28.1972 47.4446 28.0873C47.2801 27.9774 47.152 27.8213 47.0763 27.6385C47.0006 27.4558 46.9808 27.2547 47.0194 27.0608C47.058 26.8668 47.1532 26.6886 47.2931 26.5488C47.4329 26.4089 47.6111 26.3137 47.8051 26.2751C47.9991 26.2365 48.2001 26.2563 48.3828 26.332C48.5656 26.4077 48.7218 26.5358 48.8316 26.7003C48.9415 26.8647 49.0002 27.0581 49.0002 27.2559C49.0002 27.5211 48.8948 27.7754 48.7073 27.963C48.5197 28.1505 48.2654 28.2559 48.0002 28.2559ZM32.0002 23.2559C29.6268 23.2559 27.3067 23.9596 25.3333 25.2782C23.3599 26.5968 21.8219 28.4709 20.9136 30.6637C20.0054 32.8564 19.7677 35.2692 20.2307 37.5969C20.6938 39.9247 21.8367 42.0629 23.5149 43.7411C25.1931 45.4194 27.3313 46.5623 29.6591 47.0253C31.9869 47.4883 34.3997 47.2507 36.5924 46.3424C38.7851 45.4342 40.6592 43.8961 41.9778 41.9227C43.2964 39.9493 44.0002 37.6292 44.0002 35.2559C44.0002 32.0733 42.7359 29.021 40.4854 26.7706C38.235 24.5201 35.1828 23.2559 32.0002 23.2559ZM32.0002 45.2559C30.0223 45.2559 28.089 44.6694 26.4445 43.5706C24.8 42.4717 23.5182 40.91 22.7614 39.0827C22.0045 37.2554 21.8065 35.2448 22.1923 33.305C22.5782 31.3651 23.5306 29.5833 24.9291 28.1848C26.3276 26.7863 28.1094 25.8339 30.0493 25.448C31.9891 25.0622 33.9997 25.2602 35.827 26.0171C37.6543 26.7739 39.216 28.0557 40.3149 29.7002C41.4137 31.3446 42.0002 33.278 42.0002 35.2559C42.0002 37.908 40.9466 40.4516 39.0712 42.3269C37.1959 44.2023 34.6523 45.2559 32.0002 45.2559ZM12.0002 18.2559C12.0002 17.4602 12.3162 16.6971 12.8788 16.1345C13.4415 15.5719 14.2045 15.2559 15.0002 15.2559H17.0002C17.7958 15.2559 18.5589 15.5719 19.1215 16.1345C19.6841 16.6971 20.0002 17.4602 20.0002 18.2559C20.0002 18.5211 19.8948 18.7754 19.7073 18.963C19.5197 19.1505 19.2654 19.2559 19.0002 19.2559C18.7349 19.2559 18.4806 19.1505 18.2931 18.963C18.1055 18.7754 18.0002 18.5211 18.0002 18.2559C18.0002 17.9906 17.8948 17.7363 17.7073 17.5488C17.5197 17.3612 17.2654 17.2559 17.0002 17.2559H15.0002C14.7349 17.2559 14.4806 17.3612 14.2931 17.5488C14.1055 17.7363 14.0002 17.9906 14.0002 18.2559C14.0002 18.5211 13.8948 18.7754 13.7073 18.963C13.5197 19.1505 13.2654 19.2559 13.0002 19.2559C12.7349 19.2559 12.4806 19.1505 12.2931 18.963C12.1055 18.7754 12.0002 18.5211 12.0002 18.2559ZM17.0002 26.2559V46.2559C17.0002 46.5211 16.8948 46.7754 16.7073 46.963C16.5197 47.1505 16.2654 47.2559 16.0002 47.2559C15.7349 47.2559 15.4806 47.1505 15.2931 46.963C15.1055 46.7754 15.0002 46.5211 15.0002 46.2559V26.2559C15.0002 25.9906 15.1055 25.7363 15.2931 25.5488C15.4806 25.3612 15.7349 25.2559 16.0002 25.2559C16.2654 25.2559 16.5197 25.3612 16.7073 25.5488C16.8948 25.7363 17.0002 25.9906 17.0002 26.2559Z" fill="#9CA8B9"/>
</g>
<defs>
<clipPath id="clip0_75_123">
<rect width="64" height="64" fill="white" transform="translate(0 0.255859)"/>
</clipPath>
</defs>
</svg>
