<svg width="65" height="64" viewBox="0 0 65 64" fill="none" xmlns="http://www.w3.org/2000/svg">
<path d="M0 52.9787L14.9358 38.6031L24.127 47.7077L46.9943 26.0644L64.5 43.0356V64H0C0 64 0 52.8889 0 52.9787ZM20.0655 11.0499C18.2716 11.0499 16.518 11.5769 15.0264 12.5641C13.5347 13.5514 12.3722 14.9546 11.6857 16.5963C10.9992 18.2381 10.8195 20.0446 11.1695 21.7875C11.5195 23.5304 12.3834 25.1313 13.6519 26.3878C14.9204 27.6444 16.5365 28.5001 18.296 28.8468C20.0555 29.1934 21.8792 29.0155 23.5366 28.3355C25.194 27.6554 26.6106 26.5038 27.6072 25.0263C28.6039 23.5488 29.1359 21.8117 29.1359 20.0347C29.1425 18.8506 28.9128 17.6769 28.4599 16.581C28.0071 15.4852 27.34 14.4888 26.4971 13.6492C25.6542 12.8096 24.652 12.1433 23.5483 11.6887C22.4445 11.234 21.2609 11 20.0655 11V11.0499Z" fill="#9CA8B9"/>
</svg>
